<svg width="21" height="21" viewBox="0 0 21 21" fill="none" xmlns="http://www.w3.org/2000/svg">
<path d="M16.1046 0.74707H4.72592C2.48188 0.74707 0.662109 2.56685 0.662109 4.81088V16.1896C0.662109 18.4336 2.48188 20.2534 4.72592 20.2534H16.1046C18.3494 20.2534 20.1684 18.4336 20.1684 16.1896V4.81088C20.1684 2.56685 18.3494 0.74707 16.1046 0.74707ZM15.9916 8.25456C16.1615 12.0071 13.3631 16.1912 8.40855 16.1912C6.90169 16.1912 5.49967 15.7499 4.31873 14.9924C5.73456 15.159 7.14714 14.7664 8.26875 13.8878C7.10081 13.8659 6.11575 13.0946 5.77682 12.0347C6.1954 12.1144 6.60665 12.0908 6.98134 11.9892C5.69799 11.7316 4.81289 10.5758 4.84133 9.33959C5.20057 9.53953 5.61265 9.65982 6.0491 9.67364C4.86165 8.87957 4.52517 7.31094 5.22333 6.1113C6.53919 7.72545 8.50527 8.78773 10.7225 8.89908C10.3332 7.23048 11.6003 5.62364 13.3225 5.62364C14.0889 5.62364 14.783 5.94712 15.2691 6.46648C15.877 6.347 16.4484 6.12512 16.9645 5.81952C16.7646 6.44291 16.3419 6.96552 15.7917 7.2955C16.3314 7.23048 16.8458 7.08743 17.3237 6.8753C16.9669 7.40847 16.5142 7.87825 15.9916 8.25456Z" fill="#80987C"/>
</svg>
