<svg width="30" height="28" viewBox="0 0 30 28" fill="none" xmlns="http://www.w3.org/2000/svg">
<path d="M13.4217 24.2891C13.4217 25.3105 12.5548 26.2018 11.4059 26.2018C10.257 26.2018 9.39009 25.3105 9.39009 24.2891C9.39009 23.2677 10.257 22.3764 11.4059 22.3764C12.5548 22.3764 13.4217 23.2677 13.4217 24.2891ZM23.745 24.2891C23.745 25.3105 22.8781 26.2018 21.7292 26.2018C20.5803 26.2018 19.7134 25.3105 19.7134 24.2891C19.7134 23.2677 20.5803 22.3764 21.7292 22.3764C22.8781 22.3764 23.745 23.2677 23.745 24.2891Z" stroke="#4C6C5E" stroke-width="2.23721"/>
<path d="M2 2L5.32904 3.2878L5.83563 5.54145M25.3033 19.0633H10.3226C9.32388 19.0633 8.76905 18.5268 8.65808 18.0975L7.7157 13.7685M7.7157 13.7685H23.3878C26.891 13.7685 26.7066 12.1637 26.7066 12.1637L28.2994 7.7951C28.5213 7.36583 28.4326 5.54145 26.302 5.54145H5.83563M7.7157 13.7685L5.83563 5.54145" stroke="#4C6C5E" stroke-width="3" stroke-linecap="round"/>
</svg>
