<svg width="21" height="21" viewBox="0 0 21 21" fill="none" xmlns="http://www.w3.org/2000/svg">
<path d="M13.2128 5.20751C12.5277 5.17663 12.3212 5.17012 10.5852 5.17012C8.84912 5.17012 8.64349 5.17663 7.95833 5.20751C6.19464 5.28797 5.37293 6.12349 5.29328 7.87256C5.26159 8.55853 5.25427 8.76416 5.25427 10.5002C5.25427 12.2363 5.26159 12.4419 5.29247 13.1279C5.37293 14.8737 6.19139 15.7125 7.95752 15.7929C8.64268 15.8238 8.84912 15.8311 10.5852 15.8311C12.3221 15.8311 12.5277 15.8246 13.2128 15.7937C14.9765 15.7133 15.7974 14.8761 15.8779 13.1287C15.9088 12.4427 15.9153 12.2371 15.9153 10.501C15.9153 8.76497 15.9088 8.55934 15.8779 7.87418C15.7974 6.12431 14.9749 5.28797 13.2128 5.20751ZM10.5852 13.839C8.74102 13.839 7.24635 12.3444 7.24635 10.5002C7.24635 8.65606 8.74184 7.16139 10.5852 7.16139C12.4285 7.16139 13.924 8.65606 13.924 10.5002C13.924 12.3444 12.4293 13.839 10.5852 13.839ZM14.0565 7.80998C13.6257 7.80998 13.2762 7.46049 13.2762 7.02972C13.2762 6.59896 13.6257 6.24947 14.0565 6.24947C14.4873 6.24947 14.8367 6.59896 14.8367 7.02972C14.8367 7.46049 14.4873 7.80998 14.0565 7.80998ZM12.7528 10.5002C12.7528 11.6974 11.7824 12.6679 10.5852 12.6679C9.38798 12.6679 8.41754 11.6974 8.41754 10.5002C8.41754 9.30302 9.38798 8.33258 10.5852 8.33258C11.7824 8.33258 12.7528 9.30302 12.7528 10.5002ZM16.2745 0.74707H4.89584C2.65181 0.74707 0.832031 2.56685 0.832031 4.81088V16.1896C0.832031 18.4336 2.65181 20.2534 4.89584 20.2534H16.2745C18.5194 20.2534 20.3383 18.4336 20.3383 16.1896V4.81088C20.3383 2.56685 18.5194 0.74707 16.2745 0.74707ZM17.0483 13.1807C16.941 15.545 15.6251 16.8552 13.2665 16.9633C12.5724 16.995 12.3513 17.0023 10.5852 17.0023C8.81905 17.0023 8.59879 16.995 7.90469 16.9633C5.54118 16.8552 4.231 15.5426 4.12209 13.1807C4.0904 12.4874 4.08308 12.2664 4.08308 10.5002C4.08308 8.7349 4.0904 8.51302 4.12209 7.81973C4.231 5.45622 5.5428 4.14523 7.90469 4.03795C8.59879 4.00543 8.81905 3.99812 10.5852 3.99812C12.3513 3.99812 12.5724 4.00543 13.2665 4.03713C15.63 4.14523 16.9426 5.46028 17.0483 7.81892C17.08 8.51302 17.0873 8.7349 17.0873 10.5002C17.0873 12.2664 17.08 12.4874 17.0483 13.1807Z" fill="#80987C"/>
</svg>
