<svg width="20" height="21" viewBox="0 0 20 21" fill="none" xmlns="http://www.w3.org/2000/svg">
<path d="M15.4425 0.74707H4.06381C1.81978 0.74707 0 2.56685 0 4.81088V16.1896C0 18.4336 1.81978 20.2534 4.06381 20.2534H15.4425C17.6873 20.2534 19.5063 18.4336 19.5063 16.1896V4.81088C19.5063 2.56685 17.6873 0.74707 15.4425 0.74707ZM13.0042 6.43641H11.4404C10.9406 6.43641 10.5659 6.64122 10.5659 7.15895V8.06193H13.0042L12.8108 10.5002H10.5659V17.0023H8.12762V10.5002H6.5021V8.06193H8.12762V6.49899C8.12762 4.85558 8.9924 3.99812 10.9406 3.99812H13.0042V6.43641Z" fill="#80987C"/>
</svg>
