<svg width="32" height="27" viewBox="0 0 32 27" fill="none" xmlns="http://www.w3.org/2000/svg">
<path d="M16.1048 4.61835C22.2825 -0.591485 26.9029 2.91606 28.5458 5.38042C32.5248 12.4859 22.3055 20.8163 16.1048 24.6746C9.86013 20.8163 -0.535231 12.4859 3.44382 5.38044C5.08674 2.91607 9.99973 -0.591378 16.1048 4.61835Z" fill="#FFFAEF"/>
<path d="M16.1048 24.6746C16.2831 24.5676 15.918 24.7908 16.1048 24.6746ZM16.1048 24.6746C22.3055 20.8163 32.5248 12.4859 28.5458 5.38042C26.9029 2.91606 22.2825 -0.591485 16.1048 4.61835M16.1048 24.6746C15.9264 24.5676 16.2929 24.7908 16.1048 24.6746ZM16.1048 24.6746C9.86013 20.8163 -0.535231 12.4859 3.44382 5.38044C5.08674 2.91607 9.99973 -0.591378 16.1048 4.61835M16.1048 4.61835C15.8605 4.82438 16.3498 4.38446 16.1048 4.61835ZM16.1048 4.61835C16.3462 4.82438 15.8597 4.38446 16.1048 4.61835Z" stroke="#4C6C5E" stroke-width="3.36"/>
</svg>
