<svg width="30" height="31" viewBox="0 0 30 31" fill="none" xmlns="http://www.w3.org/2000/svg">
<path d="M25.8572 4.63467C23.0973 2.11325 19.6645 0.852539 15.5649 0.852539C11.2554 0.852539 7.58181 2.28461 4.55032 5.15486C1.51883 8.02512 0 11.5931 0 15.8648C0 19.959 1.44474 23.478 4.32805 26.4278C7.22371 29.3776 11.1134 30.8525 16.0095 30.8525C18.9607 30.8525 21.8563 30.2528 24.6964 29.0472C25.6226 28.6555 26.0733 27.6028 25.6966 26.6787C25.3077 25.724 24.2087 25.2834 23.2517 25.6873C20.7821 26.7399 18.3618 27.2662 16.0033 27.2662C12.2494 27.2662 9.34143 26.1341 7.27928 23.8636C5.2233 21.5992 4.19222 18.937 4.19222 15.8831C4.19222 12.5661 5.29739 9.79991 7.50154 7.57837C9.69953 5.36294 12.41 4.24911 15.6205 4.24911C18.5779 4.24911 21.0784 5.16098 23.1159 6.98473C25.1533 8.80847 26.1721 11.1035 26.1721 13.8697C26.1721 15.7607 25.7028 17.3397 24.7705 18.5943C23.8382 19.855 22.8689 20.4792 21.8625 20.4792C21.3192 20.4792 21.0475 20.1916 21.0475 19.6102C21.0475 19.139 21.0846 18.5882 21.1525 17.9517L22.3009 8.64324H18.3495L18.0963 9.55511C17.0899 8.74116 15.9848 8.33112 14.787 8.33112C12.8854 8.33112 11.2554 9.08387 9.90327 10.5833C8.54497 12.0826 7.87199 14.0166 7.87199 16.3789C7.87199 18.6861 8.47088 20.5527 9.67483 21.9664C10.8788 23.3862 12.3235 24.09 14.0152 24.09C15.5279 24.09 16.8183 23.4596 17.8926 22.205C18.7014 23.4107 19.893 24.0104 21.4674 24.0104C23.7827 24.0104 25.7831 23.0129 27.4686 21.0117C29.1541 19.0166 30 16.6053 30 13.784C30 10.2099 28.6232 7.15609 25.8572 4.63467ZM16.7565 18.7167C16.0589 19.6469 15.2254 20.1181 14.256 20.1181C13.5954 20.1181 13.0644 19.7754 12.6631 19.09C12.2556 18.4046 12.0519 17.5539 12.0519 16.5319C12.0519 15.2711 12.3359 14.2552 12.9039 13.4841C13.4719 12.713 14.1758 12.3213 15.0154 12.3213C15.744 12.3213 16.3923 12.609 16.9603 13.1904C17.5283 13.7718 17.8123 14.5429 17.8123 15.5098C17.8061 16.7155 17.4542 17.7803 16.7565 18.7167Z" fill="#4C6C5E"/>
</svg>
