<svg width="19" height="19" viewBox="0 0 19 19" fill="none" xmlns="http://www.w3.org/2000/svg">
<path d="M17.006 8.63813L13.557 12.086C11.6532 13.9909 8.56491 13.9909 6.66118 12.086C6.36116 11.7872 6.12662 11.4502 5.92063 11.1026L7.52315 9.50007C7.59935 9.42326 7.69341 9.37922 7.78329 9.32744C7.894 9.70606 8.08746 10.0644 8.38513 10.362C9.33579 11.3133 10.883 11.3121 11.833 10.362L15.2809 6.91415C16.2322 5.96287 16.2322 4.41631 15.2809 3.46565C14.3308 2.51498 12.7843 2.51498 11.833 3.46565L10.6067 4.69314C9.612 4.3056 8.53988 4.20144 7.49633 4.3544L10.109 1.7417C12.0139 -0.162599 15.1011 -0.162599 17.006 1.7417C18.9098 3.64608 18.9098 6.73383 17.006 8.63813ZM7.88806 14.3076L6.66118 15.5351C5.71052 16.4852 4.16335 16.4852 3.21268 15.5351C2.26202 14.5839 2.26202 13.0373 3.21268 12.0861L6.66118 8.63817C7.61246 7.6869 9.15841 7.6869 10.1091 8.63817C10.4061 8.93522 10.5996 9.29357 10.7115 9.67158C10.802 9.6192 10.8949 9.57634 10.9711 9.50014L12.5736 7.89823C12.3688 7.5494 12.1331 7.21364 11.8331 6.91422C9.92932 5.00992 6.841 5.00992 4.93666 6.91422L1.48877 10.3621C-0.415529 12.267 -0.415529 15.3542 1.48877 17.2591C3.39308 19.1628 6.48082 19.1628 8.38516 17.2591L10.9985 14.6458C9.95432 14.7993 8.88219 14.6946 7.88806 14.3076Z" fill="#80987C"/>
</svg>
