<svg width="20" height="19" viewBox="0 0 20 19" fill="none" xmlns="http://www.w3.org/2000/svg">
<path fill-rule="evenodd" clip-rule="evenodd" d="M18.6811 14.2395C19.7686 15.3242 19.7737 17.0877 18.6919 18.1789C17.6102 19.2695 15.8517 19.2743 14.7642 18.1898L9.99833 13.4293L5.22725 18.1951C4.14815 19.2702 2.4 19.2552 1.32301 18.1618C0.245882 17.0679 0.24827 15.3097 1.32765 14.2343L6.06572 9.50145L1.3188 4.76016C0.231414 3.67582 0.226357 1.91208 1.30798 0.821054C2.38974 -0.269545 4.1483 -0.27424 5.23568 0.810382L10.0016 5.5706L14.7728 0.804975C15.852 -0.269972 17.6 -0.255175 18.677 0.83827C19.7543 1.932 19.7518 3.69033 18.6723 4.76556L13.9342 9.49846L18.6811 14.2395Z" fill="#4C6C5E"/>
</svg>
