<svg width="257" height="362" viewBox="0 0 257 362" fill="none" xmlns="http://www.w3.org/2000/svg">
<g opacity="0.4">
<circle cx="87.5" cy="252.5" r="87.5" fill="#FFD975"/>
</g>
<g clip-path="url(#clip0_1396_25533)">
<path d="M87.3276 49.8623C87.3276 49.8623 157.631 66.5665 196.677 178.273C237.432 294.87 333.59 348.344 333.59 348.344L320.037 360.96C320.037 360.96 225.168 304.145 189.656 185.853C189.656 185.853 169.348 88.282 87.3276 49.8623Z" fill="#AFCAAB" stroke="#AFCAAB" stroke-width="0.526462" stroke-miterlimit="10"/>
<path d="M254.716 266.714C247.32 266.714 241.325 244.04 241.325 216.069C241.325 188.099 247.32 165.425 254.716 165.425C262.112 165.425 268.107 188.099 268.107 216.069C268.107 244.04 262.112 266.714 254.716 266.714Z" fill="#AFCAAB"/>
<path d="M221.186 204.459C213.856 203.477 210.935 180.209 214.662 152.487C218.388 124.765 227.352 103.087 234.682 104.069C242.012 105.05 244.933 128.319 241.206 156.041C237.479 183.762 228.516 205.44 221.186 204.459Z" fill="#AFCAAB"/>
<path d="M195.384 147.949C188.012 147.354 183.869 124.271 186.13 96.3914C188.391 68.5123 196.2 46.3944 203.571 46.9897C210.943 47.5851 215.086 70.6682 212.825 98.5473C210.564 126.426 202.755 148.544 195.384 147.949Z" fill="#AFCAAB"/>
<path d="M212.914 320.942C188.745 315.402 170.34 305.752 171.805 299.388C173.27 293.023 194.05 292.355 218.219 297.895C242.388 303.435 260.793 313.085 259.329 319.449C257.864 325.813 237.083 326.482 212.914 320.942Z" fill="#AFCAAB"/>
<path d="M172.308 282.356C145.392 274.553 125.245 262.483 127.308 255.396C129.371 248.308 152.863 248.888 179.779 256.69C206.694 264.492 226.842 276.562 224.779 283.65C222.716 290.737 199.224 290.158 172.308 282.356Z" fill="#AFCAAB"/>
<path d="M147.732 233.526C121.628 223.339 102.651 209.508 105.345 202.635C108.038 195.762 131.383 198.448 157.486 208.635C183.589 218.822 202.567 232.653 199.873 239.526C197.179 246.399 173.835 243.713 147.732 233.526Z" fill="#AFCAAB"/>
<path d="M126.843 188.731C100.097 180.366 80.2089 167.875 82.4207 160.833C84.6325 153.79 108.107 154.862 134.853 163.227C161.598 171.592 181.487 184.083 179.275 191.125C177.063 198.168 153.589 197.096 126.843 188.731Z" fill="#AFCAAB"/>
<path d="M111.112 147.243C83.7947 140.981 62.992 130.074 64.6476 122.881C66.3032 115.688 89.7902 114.933 117.107 121.194C144.424 127.456 165.227 138.363 163.571 145.556C161.916 152.749 138.429 153.504 111.112 147.243Z" fill="#AFCAAB"/>
<path d="M152.559 63.0878C149.913 38.6329 153.01 18.2435 159.476 17.5467C165.942 16.8499 173.329 36.1096 175.975 60.5644C178.622 85.0193 175.525 105.409 169.059 106.106C162.593 106.802 155.206 87.5426 152.559 63.0878Z" fill="#AFCAAB"/>
<path d="M94.8988 106.989C73.7455 102.14 57.6366 93.6944 58.9187 88.1244C60.2007 82.5543 78.3881 81.9695 99.5415 86.8181C120.695 91.6667 136.804 100.113 135.522 105.683C134.24 111.253 116.052 111.838 94.8988 106.989Z" fill="#AFCAAB"/>
<path d="M120.716 39.6692C116.871 18.7729 118.234 1.0125 123.759 0.000259451C129.285 -1.01198 136.88 15.1072 140.724 36.0035C144.569 56.8998 143.206 74.6602 137.68 75.6724C132.155 76.6847 124.56 60.5654 120.716 39.6692Z" fill="#AFCAAB"/>
<path d="M70.2839 72.213C54.2126 70.509 41.5494 65.6971 41.9999 61.4652C42.4505 57.2333 55.8442 55.184 71.9155 56.888C87.9869 58.592 100.65 63.404 100.199 67.6359C99.7489 71.8678 86.3552 73.917 70.2839 72.213Z" fill="#AFCAAB"/>
<path d="M66.7624 42.5299C55.8467 37.8622 47.9983 31.7482 49.2325 28.8739C50.4667 25.9996 60.3161 27.4535 71.2318 32.1211C82.1474 36.7888 89.9958 42.9028 88.7616 45.7771C87.5274 48.6514 77.678 47.1975 66.7624 42.5299Z" fill="#AFCAAB"/>
<path d="M94.2856 31.4893C87.8728 18.5262 85.4527 6.6486 88.8804 4.95997C92.308 3.27134 100.285 12.4111 106.698 25.3743C113.111 38.3374 115.531 50.215 112.103 51.9037C108.676 53.5923 100.699 44.4525 94.2856 31.4893Z" fill="#AFCAAB"/>
<path d="M284.726 303.368C278.19 303.121 273.652 282.884 274.59 258.166C275.528 233.449 281.586 213.612 288.122 213.858C294.658 214.105 299.195 234.343 298.258 259.061C297.32 283.778 291.261 303.615 284.726 303.368Z" fill="#AFCAAB"/>
</g>
<defs>
<clipPath id="clip0_1396_25533">
<rect width="293" height="362" fill="white" transform="matrix(-1 0 0 1 335 0)"/>
</clipPath>
</defs>
</svg>
