<svg width="199" height="341" viewBox="0 0 199 341" fill="none" xmlns="http://www.w3.org/2000/svg">
<path d="M170.5 341C264.665 341 341 264.665 341 170.5C341 76.3354 264.665 0 170.5 0C76.3354 0 0 76.3354 0 170.5C0 264.665 76.3354 341 170.5 341Z" fill="#4C6C5E"/>
<path d="M170.501 318.267C252.11 318.267 318.268 252.109 318.268 170.5C318.268 88.8908 252.11 22.7334 170.501 22.7334C88.8918 22.7334 22.7344 88.8908 22.7344 170.5C22.7344 252.109 88.8918 318.267 170.501 318.267Z" fill="#FFFAEF"/>
<path d="M170.5 303.111C243.739 303.111 303.111 243.739 303.111 170.5C303.111 97.2609 243.739 37.8889 170.5 37.8889C97.2607 37.8889 37.8887 97.2609 37.8887 170.5C37.8887 243.739 97.2607 303.111 170.5 303.111Z" fill="#AFCAAB"/>
<path d="M170.499 234.911C206.072 234.911 234.91 206.073 234.91 170.5C234.91 134.927 206.072 106.089 170.499 106.089C134.926 106.089 106.088 134.927 106.088 170.5C106.088 206.073 134.926 234.911 170.499 234.911Z" fill="#FFFAEF"/>
<path d="M170.499 93.4593C173.289 93.4593 175.551 86.6739 175.551 78.3038C175.551 69.9336 173.289 63.1482 170.499 63.1482C167.709 63.1482 165.447 69.9336 165.447 78.3038C165.447 86.6739 167.709 93.4593 170.499 93.4593Z" fill="#4C6C5E"/>
<path d="M110.266 122.466C112.005 120.285 108.111 114.286 101.567 109.067C95.0225 103.848 88.3072 101.386 86.5677 103.567C84.8281 105.749 88.7229 111.748 95.267 116.966C101.811 122.185 108.526 124.647 110.266 122.466Z" fill="#4C6C5E"/>
<path d="M81.738 195.941C89.8984 194.078 96.0104 190.363 95.3895 187.643C94.7687 184.923 87.6501 184.228 79.4897 186.091C71.3294 187.953 65.2175 191.668 65.8383 194.388C66.4592 197.108 73.5777 197.804 81.738 195.941Z" fill="#4C6C5E"/>
<path d="M135.048 255.758C138.68 248.217 139.586 241.122 137.072 239.911C134.559 238.701 129.577 243.833 125.945 251.374C122.313 258.916 121.407 266.01 123.921 267.221C126.435 268.431 131.417 263.299 135.048 255.758Z" fill="#4C6C5E"/>
<path d="M217.077 267.221C219.591 266.01 218.684 258.915 215.053 251.374C211.421 243.833 206.439 238.701 203.925 239.911C201.412 241.122 202.318 248.217 205.95 255.758C209.581 263.299 214.563 268.431 217.077 267.221Z" fill="#4C6C5E"/>
<path d="M275.159 194.388C275.78 191.668 269.668 187.953 261.508 186.09C253.347 184.228 246.229 184.923 245.608 187.643C244.987 190.363 251.099 194.078 259.259 195.941C267.42 197.803 274.538 197.108 275.159 194.388Z" fill="#4C6C5E"/>
<path d="M245.73 116.966C252.274 111.747 256.169 105.748 254.43 103.567C252.69 101.386 245.975 103.848 239.431 109.067C232.887 114.285 228.992 120.284 230.731 122.466C232.471 124.647 239.186 122.185 245.73 116.966Z" fill="#4C6C5E"/>
</svg>
