<svg width="176" height="139" viewBox="0 0 176 139" fill="none" xmlns="http://www.w3.org/2000/svg">
<path d="M114.5 229C177.737 229 229 177.737 229 114.5C229 51.2634 177.737 0 114.5 0C51.2634 0 0 51.2634 0 114.5C0 177.737 51.2634 229 114.5 229Z" fill="#4C6C5E"/>
<path d="M114.501 213.733C169.306 213.733 213.734 169.305 213.734 114.5C213.734 59.6949 169.306 15.2666 114.501 15.2666C59.6959 15.2666 15.2676 59.6949 15.2676 114.5C15.2676 169.305 59.6959 213.733 114.501 213.733Z" fill="#FFFAEF"/>
<path d="M114.499 203.555C163.683 203.555 203.554 163.684 203.554 114.5C203.554 65.3159 163.683 25.4443 114.499 25.4443C65.3149 25.4443 25.4434 65.3159 25.4434 114.5C25.4434 163.684 65.3149 203.555 114.499 203.555Z" fill="#AFCAAB"/>
<path d="M114.5 157.755C138.389 157.755 157.755 138.389 157.755 114.5C157.755 90.6103 138.389 71.2441 114.5 71.2441C90.6103 71.2441 71.2441 90.6103 71.2441 114.5C71.2441 138.389 90.6103 157.755 114.5 157.755Z" fill="#FFFAEF"/>
<path d="M114.5 62.7628C116.374 62.7628 117.893 58.206 117.893 52.585C117.893 46.964 116.374 42.4072 114.5 42.4072C112.626 42.4072 111.107 46.964 111.107 52.585C111.107 58.206 112.626 62.7628 114.5 62.7628Z" fill="#4C6C5E"/>
<path d="M74.0502 82.2424C75.2184 80.7775 72.6028 76.7489 68.2081 73.2442C63.8134 69.7396 59.3038 68.086 58.1356 69.5509C56.9674 71.0158 59.5829 75.0444 63.9776 78.5491C68.3723 82.0537 72.882 83.7073 74.0502 82.2424Z" fill="#4C6C5E"/>
<path d="M54.8922 131.585C60.3723 130.334 64.4769 127.839 64.0599 126.012C63.643 124.186 58.8625 123.719 53.3824 124.97C47.9023 126.221 43.7978 128.715 44.2147 130.542C44.6316 132.369 49.4121 132.836 54.8922 131.585Z" fill="#4C6C5E"/>
<path d="M90.6929 171.755C93.1318 166.691 93.7404 161.926 92.0523 161.113C90.3642 160.3 87.0186 163.747 84.5797 168.811C82.1408 173.876 81.5322 178.64 83.2204 179.453C84.9085 180.266 88.2541 176.82 90.6929 171.755Z" fill="#4C6C5E"/>
<path d="M145.78 179.453C147.468 178.64 146.859 173.875 144.42 168.811C141.981 163.747 138.636 160.3 136.948 161.113C135.26 161.926 135.868 166.691 138.307 171.755C140.746 176.819 144.092 180.266 145.78 179.453Z" fill="#4C6C5E"/>
<path d="M184.785 130.542C185.202 128.715 181.097 126.22 175.617 124.97C170.137 123.719 165.357 124.186 164.94 126.012C164.523 127.839 168.627 130.334 174.107 131.585C179.588 132.835 184.368 132.369 184.785 130.542Z" fill="#4C6C5E"/>
<path d="M165.022 78.5489C169.417 75.0442 172.032 71.0156 170.864 69.5507C169.696 68.0858 165.186 69.7394 160.791 73.244C156.397 76.7487 153.781 80.7774 154.949 82.2422C156.118 83.7071 160.627 82.0535 165.022 78.5489Z" fill="#4C6C5E"/>
</svg>
