<svg width="176" height="139" viewBox="0 0 176 139" fill="none" xmlns="http://www.w3.org/2000/svg">
<g clip-path="url(#clip0_965_20933)">
<path d="M114.5 229C177.737 229 229 177.737 229 114.5C229 51.2634 177.737 0 114.5 0C51.2634 0 0 51.2634 0 114.5C0 177.737 51.2634 229 114.5 229Z" fill="#FFD975"/>
<path d="M114.5 222.061C173.904 222.061 222.061 173.904 222.061 114.5C222.061 55.096 173.904 6.93945 114.5 6.93945C55.096 6.93945 6.93945 55.096 6.93945 114.5C6.93945 173.904 55.096 222.061 114.5 222.061Z" fill="#FFFAEF"/>
<path d="M118.269 92.1015C117.944 92.8564 117.406 93.4996 116.719 93.9516C116.033 94.4035 115.229 94.6444 114.407 94.6444C113.586 94.6444 112.782 94.4035 112.096 93.9516C111.409 93.4996 110.871 92.8564 110.546 92.1015L87.4622 37.227C86.5555 35.0738 86.5125 32.6541 87.3422 30.47C88.1719 28.2859 89.8105 26.505 91.9181 25.4968C97.2843 22.9255 105.407 21.2861 114.51 21.2861C123.605 21.2861 131.721 22.9226 137.087 25.4899C139.199 26.4996 140.84 28.2854 141.668 30.4751C142.496 32.6647 142.448 35.0895 141.533 37.2443L118.269 92.1015Z" fill="#FFD975"/>
<path d="M101.326 95.9967C101.631 96.7601 101.704 97.5959 101.539 98.4007C101.373 99.2056 100.975 99.9443 100.394 100.525C99.8129 101.106 99.0743 101.504 98.2694 101.67C97.4645 101.836 96.6288 101.762 95.8654 101.458L40.7406 78.9783C38.5769 78.0968 36.8355 76.4162 35.8778 74.2852C34.9201 72.1541 34.8195 69.7362 35.5969 67.533C37.5732 61.9203 42.1573 55.0178 48.5942 48.5808C55.0254 42.1497 61.9212 37.5681 67.5311 35.5889C69.7386 34.8094 72.1617 34.9117 74.2957 35.8745C76.4296 36.8372 78.1098 38.5862 78.9863 40.757L101.326 95.9967Z" fill="#FFD975"/>
<path d="M92.1006 110.731C92.8555 111.056 93.4987 111.595 93.9506 112.281C94.4025 112.967 94.6434 113.771 94.6434 114.593C94.6434 115.414 94.4025 116.218 93.9506 116.905C93.4987 117.591 92.8555 118.13 92.1006 118.454L37.226 141.538C35.0728 142.445 32.6531 142.488 30.469 141.658C28.2849 140.828 26.5041 139.19 25.4959 137.082C22.9246 131.716 21.2852 123.594 21.2852 114.49C21.2852 105.395 22.9216 97.2796 25.4889 91.9133C26.4987 89.8012 28.2844 88.1601 30.4741 87.3319C32.6638 86.5038 35.0885 86.5524 37.2433 87.4676L92.1006 110.731Z" fill="#FFD975"/>
<path d="M95.995 127.673C96.7584 127.369 97.5942 127.295 98.399 127.461C99.2039 127.627 99.9425 128.025 100.524 128.606C101.105 129.187 101.503 129.926 101.668 130.73C101.834 131.535 101.76 132.371 101.456 133.134L78.9766 188.259C78.0951 190.423 76.4145 192.164 74.2835 193.122C72.1524 194.08 69.7345 194.18 67.5313 193.403C61.9186 191.427 55.0161 186.843 48.5791 180.406C42.148 173.974 37.5664 167.079 35.5872 161.469C34.8077 159.261 34.91 156.838 35.8728 154.704C36.8355 152.57 38.5845 150.89 40.7553 150.014L95.995 127.673Z" fill="#FFD975"/>
<path d="M110.73 136.899C111.055 136.144 111.593 135.501 112.28 135.049C112.966 134.597 113.77 134.356 114.591 134.356C115.413 134.356 116.217 134.597 116.903 135.049C117.59 135.501 118.128 136.144 118.453 136.899L141.537 191.774C142.443 193.927 142.486 196.347 141.657 198.531C140.827 200.715 139.188 202.496 137.081 203.504C131.715 206.075 123.592 207.715 114.489 207.715C105.394 207.715 97.2783 206.078 91.912 203.511C89.7999 202.501 88.1588 200.715 87.3307 198.526C86.5025 196.336 86.5511 193.911 87.4664 191.756L110.73 136.899Z" fill="#FFD975"/>
<path d="M127.673 133.004C127.368 132.24 127.295 131.405 127.46 130.6C127.626 129.795 128.024 129.056 128.605 128.475C129.186 127.894 129.925 127.496 130.73 127.33C131.534 127.165 132.37 127.239 133.134 127.543L188.258 150.022C190.422 150.904 192.163 152.584 193.121 154.715C194.079 156.846 194.18 159.264 193.402 161.468C191.426 167.08 186.842 173.983 180.405 180.42C173.974 186.851 167.078 191.432 161.468 193.412C159.26 194.191 156.837 194.089 154.703 193.126C152.569 192.163 150.889 190.414 150.013 188.244L127.673 133.004Z" fill="#FFD975"/>
<path d="M136.898 118.27C136.143 117.945 135.5 117.406 135.048 116.72C134.596 116.034 134.355 115.23 134.355 114.408C134.355 113.586 134.596 112.783 135.048 112.096C135.5 111.41 136.143 110.871 136.898 110.547L191.772 87.4629C193.925 86.5562 196.345 86.5132 198.529 87.3429C200.713 88.1725 202.494 89.8111 203.502 91.9188C206.074 97.2849 207.713 105.407 207.713 114.51C207.713 123.605 206.077 131.721 203.509 137.088C202.5 139.2 200.714 140.841 198.524 141.669C196.334 142.497 193.91 142.448 191.755 141.533L136.898 118.27Z" fill="#FFD975"/>
<path d="M133.003 101.327C132.24 101.631 131.404 101.705 130.599 101.54C129.795 101.374 129.056 100.976 128.475 100.395C127.894 99.8137 127.496 99.075 127.33 98.2702C127.164 97.4653 127.238 96.6295 127.542 95.8662L150.022 40.7413C150.903 38.5776 152.584 36.8363 154.715 35.8786C156.846 34.9208 159.264 34.8203 161.467 35.5977C167.08 37.5739 173.982 42.158 180.419 48.595C186.851 55.0261 191.432 61.922 193.411 67.5319C194.191 69.7394 194.088 72.1625 193.126 74.2964C192.163 76.4304 190.414 78.1106 188.243 78.987L133.003 101.327Z" fill="#FFD975"/>
</g>
<defs>
<clipPath id="clip0_965_20933">
<rect width="229" height="229" fill="white"/>
</clipPath>
</defs>
</svg>
