<svg width="145" height="145" viewBox="0 0 145 145" fill="none" xmlns="http://www.w3.org/2000/svg">
<g clip-path="url(#clip0_431_9111)">
<path d="M72.5 145C112.541 145 145 112.541 145 72.5C145 32.4594 112.541 0 72.5 0C32.4594 0 0 32.4594 0 72.5C0 112.541 32.4594 145 72.5 145Z" fill="#FFD975"/>
<path d="M72.5006 140.606C110.115 140.606 140.607 110.114 140.607 72.4999C140.607 34.8859 110.115 4.3938 72.5006 4.3938C34.8867 4.3938 4.39453 34.8859 4.39453 72.4999C4.39453 110.114 34.8867 140.606 72.5006 140.606Z" fill="#FFFAEF"/>
<path d="M74.8855 58.3175C74.68 58.7955 74.3388 59.2027 73.9043 59.4889C73.4697 59.7751 72.9608 59.9276 72.4405 59.9276C71.9201 59.9276 71.4112 59.7751 70.9767 59.4889C70.5421 59.2027 70.2009 58.7955 69.9954 58.3175L55.3791 23.5716C54.805 22.2082 54.7777 20.6761 55.3031 19.2931C55.8284 17.9102 56.866 16.7826 58.2005 16.1442C61.5983 14.5161 66.7412 13.478 72.5053 13.478C78.2641 13.478 83.4029 14.5142 86.8008 16.1398C88.1382 16.7792 89.1773 17.9099 89.7016 19.2963C90.226 20.6828 90.1952 22.2182 89.6157 23.5825L74.8855 58.3175Z" fill="#FFD975"/>
<path d="M64.1577 60.7839C64.3503 61.2672 64.3971 61.7964 64.2922 62.3061C64.1872 62.8157 63.9352 63.2834 63.5673 63.6513C63.1994 64.0192 62.7317 64.2712 62.222 64.3762C61.7124 64.4811 61.1832 64.4344 60.6999 64.2417L25.7955 50.008C24.4255 49.4499 23.3229 48.3857 22.7165 47.0364C22.11 45.687 22.0463 44.156 22.5386 42.761C23.7899 39.2071 26.6925 34.8365 30.7683 30.7607C34.8405 26.6886 39.2068 23.7876 42.759 22.5343C44.1567 22.0408 45.691 22.1056 47.0422 22.7152C48.3934 23.3248 49.4573 24.4322 50.0122 25.8067L64.1577 60.7839Z" fill="#FFD975"/>
<path d="M58.316 70.1136C58.794 70.3191 59.2013 70.6603 59.4874 71.0948C59.7736 71.5294 59.9261 72.0383 59.9261 72.5586C59.9261 73.0789 59.7736 73.5878 59.4874 74.0224C59.2013 74.457 58.794 74.7981 58.316 75.0037L23.5701 89.62C22.2067 90.1941 20.6746 90.2213 19.2917 89.696C17.9087 89.1707 16.7811 88.1331 16.1427 86.7986C14.5146 83.4008 13.4766 78.2579 13.4766 72.4938C13.4766 66.735 14.5127 61.5961 16.1383 58.1983C16.7777 56.8609 17.9084 55.8218 19.2949 55.2974C20.6814 54.773 22.2167 54.8038 23.5811 55.3833L58.316 70.1136Z" fill="#FFD975"/>
<path d="M60.7819 80.8412C61.2653 80.6485 61.7945 80.6018 62.3041 80.7067C62.8138 80.8116 63.2815 81.0636 63.6494 81.4316C64.0173 81.7995 64.2693 82.2672 64.3742 82.7768C64.4792 83.2864 64.4324 83.8157 64.2398 84.299L50.0061 119.203C49.4479 120.573 48.3838 121.676 47.0345 122.282C45.6851 122.889 44.1541 122.953 42.759 122.46C39.2052 121.209 34.8346 118.306 30.7588 114.231C26.6866 110.158 23.7856 105.792 22.5324 102.24C22.0389 100.842 22.1037 99.3079 22.7133 97.9567C23.3229 96.6055 24.4303 95.5416 25.8048 94.9866L60.7819 80.8412Z" fill="#FFD975"/>
<path d="M70.1119 86.6828C70.3175 86.2048 70.6586 85.7975 71.0932 85.5114C71.5277 85.2252 72.0366 85.0727 72.557 85.0727C73.0773 85.0727 73.5862 85.2252 74.0208 85.5114C74.4553 85.7975 74.7965 86.2048 75.002 86.6828L89.6184 121.429C90.1925 122.792 90.2197 124.324 89.6943 125.707C89.169 127.09 88.1315 128.218 86.7969 128.856C83.3991 130.484 78.2562 131.522 72.4922 131.522C66.7333 131.522 61.5945 130.486 58.1966 128.86C56.8593 128.221 55.8202 127.09 55.2958 125.704C54.7714 124.317 54.8022 122.782 55.3817 121.418L70.1119 86.6828Z" fill="#FFD975"/>
<path d="M80.8398 84.2163C80.6472 83.733 80.6004 83.2037 80.7053 82.6941C80.8103 82.1845 81.0623 81.7168 81.4302 81.3489C81.7981 80.9809 82.2658 80.7289 82.7755 80.624C83.2851 80.5191 83.8143 80.5658 84.2976 80.7585L119.202 94.9922C120.572 95.5503 121.675 96.6144 122.281 97.9638C122.887 99.3131 122.951 100.844 122.459 102.239C121.208 105.793 118.305 110.164 114.229 114.239C110.157 118.312 105.791 121.213 102.239 122.466C100.841 122.959 99.3065 122.895 97.9553 122.285C96.6041 121.675 95.5402 120.568 94.9853 119.193L80.8398 84.2163Z" fill="#FFD975"/>
<path d="M86.681 74.8868C86.203 74.6812 85.7957 74.3401 85.5096 73.9055C85.2234 73.4709 85.0709 72.962 85.0709 72.4417C85.0709 71.9214 85.2234 71.4125 85.5096 70.9779C85.7957 70.5434 86.203 70.2022 86.681 69.9967L121.427 55.3803C122.79 54.8062 124.322 54.779 125.705 55.3043C127.088 55.8297 128.216 56.8672 128.854 58.2017C130.482 61.5995 131.52 66.7425 131.52 72.5065C131.52 78.2654 130.484 83.4042 128.859 86.8021C128.219 88.1394 127.089 89.1785 125.702 89.7029C124.316 90.2273 122.78 90.1965 121.416 89.617L86.681 74.8868Z" fill="#FFD975"/>
<path d="M84.2152 64.159C83.7319 64.3517 83.2027 64.3984 82.693 64.2935C82.1834 64.1886 81.7157 63.9365 81.3478 63.5686C80.9799 63.2007 80.7279 62.733 80.6229 62.2234C80.518 61.7137 80.5647 61.1845 80.7574 60.7012L94.9911 25.7968C95.5492 24.4268 96.6134 23.3242 97.9627 22.7178C99.3121 22.1114 100.843 22.0477 102.238 22.5399C105.792 23.7913 110.163 26.6938 114.238 30.7697C118.311 34.8418 121.212 39.2082 122.465 42.7603C122.958 44.158 122.894 45.6923 122.284 47.0435C121.674 48.3947 120.567 49.4586 119.192 50.0135L84.2152 64.159Z" fill="#FFD975"/>
</g>
<defs>
<clipPath id="clip0_431_9111">
<rect width="145" height="145" fill="white"/>
</clipPath>
</defs>
</svg>
